<?xml version="1.0" standalone="no"?>
<!DOCTYPE svg PUBLIC "-//W3C//DTD SVG 20010904//EN"
 "http://www.w3.org/TR/2001/REC-SVG-20010904/DTD/svg10.dtd">
<svg version="1.0" xmlns="http://www.w3.org/2000/svg"
 width="189.000000pt" height="189.000000pt" viewBox="0 0 189.000000 189.000000"
 preserveAspectRatio="xMidYMid meet">
<metadata>
Created by potrace 1.11, written by Peter Selinger 2001-2013
</metadata>
<g transform="translate(0.000000,189.000000) scale(0.100000,-0.100000)"
fill="#000000" stroke="none">
<path d="M37 1853 c-5 -11 -2 -77 7 -134 9 -63 44 -168 67 -200 10 -15 19 -31
19 -36 0 -12 96 -110 127 -130 l22 -15 -30 -31 c-40 -41 -109 -147 -141 -217
-33 -71 -84 -223 -93 -280 l-7 -44 23 17 c13 10 34 22 47 29 12 6 22 15 22 20
0 4 7 8 15 8 13 0 14 -4 5 -20 -6 -11 -9 -20 -7 -20 3 0 -1 -26 -8 -59 -12
-58 -17 -336 -8 -399 7 -41 14 -40 37 2 10 19 46 65 81 102 l62 69 1 -100 c1
-55 4 -115 7 -135 3 -19 7 -50 10 -69 2 -18 6 -35 8 -37 2 -2 42 33 88 79 119
115 219 162 294 137 34 -11 39 -20 68 -112 15 -51 8 -61 -25 -31 -28 25 -24
-6 8 -53 66 -98 160 -145 294 -148 134 -3 240 54 291 158 12 22 34 55 50 71
46 49 93 175 70 189 -5 3 -29 0 -55 -8 -43 -13 -46 -13 -52 8 -13 39 -11 121
3 163 9 25 28 52 49 68 37 29 123 69 130 62 3 -2 6 -28 6 -56 1 -28 7 -51 13
-51 23 0 114 61 145 97 19 21 52 46 74 56 51 23 72 41 104 92 36 55 40 159 10
228 -11 26 -24 47 -29 47 -5 0 -9 8 -9 18 0 20 -52 113 -73 130 -12 10 -13 21
-5 55 9 40 8 43 -24 72 -19 16 -66 73 -105 126 -148 197 -282 259 -573 264
-85 2 -182 -1 -215 -6 -33 -5 -76 -12 -95 -14 -19 -3 -78 -14 -130 -25 -182
-36 -275 -42 -368 -23 -66 13 -162 54 -186 79 -8 8 -16 11 -19 7z"/>
</g>
</svg>
